<svg aria-hidden="true" style="position: absolute; width: 0; height: 0; overflow: hidden;" version="1.1" xmlns="http://www.w3.org/2000/svg" xmlns:xlink="http://www.w3.org/1999/xlink">
<defs>
<symbol id="slider" viewBox="0 0 32 32">
<path d="M25.068 4.604c1.029-0.931 1.111-2.521 0.183-3.553s-2.515-1.114-3.544-0.183l-14.781 13.368c-1.107 1.001-1.104 2.744 0.007 3.742l14.652 13.159c1.032 0.927 2.618 0.839 3.543-0.195s0.837-2.625-0.195-3.552l-12.093-10.86c-0.257-0.231-0.258-0.633-0.002-0.864l12.23-11.061z"></path>
</symbol>
<symbol id="instagram" viewBox="0 0 32 32">
<path d="M10.493 2.351h11.118c5.116 0 9.265 3.781 9.265 8.443v10.132c0 4.662-4.149 8.443-9.265 8.443h-11.118c-5.116 0-9.265-3.781-9.265-8.443v-10.132c0-4.662 4.149-8.443 9.265-8.443zM21.611 26.835c3.576 0 6.485-2.651 6.485-5.91v-10.132c0-3.259-2.909-5.91-6.485-5.91h-11.118c-3.576 0-6.485 2.651-6.485 5.91v10.132c0 3.259 2.909 5.91 6.485 5.91h11.118z"></path>
<path d="M8.64 15.859c0-3.73 3.319-6.754 7.412-6.754s7.412 3.024 7.412 6.754-3.319 6.754-7.412 6.754c-4.093 0-7.412-3.024-7.412-6.754zM11.42 15.859c0 2.327 2.079 4.221 4.632 4.221s4.632-1.895 4.632-4.221c0-2.329-2.079-4.221-4.632-4.221s-4.632 1.893-4.632 4.221z"></path>
<path d="M25.008 8.598c0 0.497-0.442 0.9-0.988 0.9s-0.988-0.403-0.988-0.9c0-0.497 0.442-0.9 0.988-0.9s0.988 0.403 0.988 0.9z"></path>
</symbol>
<symbol id="telegram" viewBox="0 0 32 32">
<path d="M29.996 3.073c0.366 0.334 0.49 0.829 0.319 1.274l-9.433 24.561c-0.183 0.475-0.665 0.801-1.217 0.821s-1.062-0.268-1.286-0.728l-5.18-10.621-11.655-4.72c-0.505-0.204-0.822-0.669-0.799-1.172s0.38-0.943 0.901-1.109l26.952-8.597c0.489-0.156 1.032-0.043 1.398 0.291zM15.826 17.722l3.634 7.451 6.359-16.558-9.994 9.107zM23.914 6.878l-18.17 5.795 8.177 3.312 9.994-9.107z"></path>
</symbol>
<symbol id="facebook" viewBox="0 0 32 32">
<path d="M20.545 6.264h3.084v-4.895c-0.532-0.067-2.362-0.217-4.493-0.217-4.446 0-7.492 2.549-7.492 7.233v4.311h-4.907v5.472h4.907v13.768h6.016v-13.767h4.708l0.747-5.472h-5.457v-3.77c0.001-1.582 0.469-2.664 2.887-2.664z"></path>
</symbol>
<symbol id="logo" viewBox="0 0 120 32">
<path fill="#fe9a22" style="fill: var(--color1, #fe9a22)" d="M30.857 2.286h-15.988c-7.581 0-13.727 6.14-13.727 13.714h15.988c7.581 0 13.727-6.14 13.727-13.714z"></path>
<path fill="#59dce4" style="fill: var(--color2, #59dce4)" d="M13.17 29.714h17.687c0-6.943-5.385-12.571-12.027-12.571h-17.687c0 6.943 5.385 12.571 12.027 12.571z"></path>
<path fill="#000" style="fill: var(--color3, #000)" d="M46.171 20.48v-12.48h-3.657v16h9.371v-3.52h-5.714z"></path>
<path fill="#000" style="fill: var(--color3, #000)" d="M61.568 12.571v1.074c-0.754-0.869-1.874-1.394-3.406-1.394-2.994 0-5.463 2.629-5.463 6.034s2.469 6.034 5.463 6.034c1.531 0 2.651-0.526 3.406-1.394v1.074h3.429v-11.429h-3.429zM58.848 21.074c-1.577 0-2.72-1.074-2.72-2.789s1.143-2.789 2.72-2.789 2.72 1.074 2.72 2.789c0 1.714-1.143 2.789-2.72 2.789z"></path>
<path fill="#000" style="fill: var(--color3, #000)" d="M74.209 12.251c-1.509 0-2.651 0.549-3.269 1.394v-1.074h-3.429v11.429h3.429v-6.24c0-1.623 0.869-2.354 2.126-2.354 1.097 0 1.989 0.663 1.989 2.080v6.514h3.429v-7.017c0-3.086-1.966-4.731-4.274-4.731z"></path>
<path fill="#000" style="fill: var(--color3, #000)" d="M89.134 8v5.646c-0.754-0.869-1.874-1.394-3.405-1.394-2.994 0-5.463 2.629-5.463 6.034s2.469 6.034 5.463 6.034c1.531 0 2.651-0.526 3.405-1.394v1.074h3.429v-16h-3.429zM86.415 21.074c-1.577 0-2.72-1.074-2.72-2.789s1.143-2.789 2.72-2.789c1.577 0 2.72 1.074 2.72 2.789s-1.142 2.789-2.72 2.789z"></path>
</symbol>
</defs>
</svg>
